<svg id="Capa_1" data-name="Capa 1" xmlns="http://www.w3.org/2000/svg" viewBox="0 0 605.2 605.2"><circle cx="302.6" cy="302.6" r="302.6" fill="#dadce2"/><polygon points="294.9 190.7 126.1 246.7 294.9 302.7 463.7 246.7 294.9 190.7" fill="#fff"/><polygon points="363.7 399.4 550.9 337.4 505.1 264.6 317.9 326.6 363.7 399.4" fill="#fff"/><polygon points="93.5 387.1 93.5 487.1 280 548.9 280 370.4 239.1 435.3 93.5 387.1" fill="#fff"/><polygon points="310 370.4 310 548.9 496.5 487.1 496.5 387.1 350.9 435.3 310 370.4" fill="#fff"/><polygon points="272 326.7 84.8 264.7 39 337.5 226.2 399.5 272 326.7" fill="#fff"/><rect x="280" y="36.9" width="30" height="100.2" fill="#fff"/><rect x="161.94" y="68.49" width="30.02" height="100.22" transform="translate(-35.59 104.34) rotate(-29.99)" fill="#fff"/><rect x="362.94" y="103.59" width="100.22" height="30.02" transform="translate(103.91 417.11) rotate(-60.02)" fill="#fff"/></svg>