<svg id="Capa_1" data-name="Capa 1" xmlns="http://www.w3.org/2000/svg" viewBox="0 0 505.6 505.6"><circle cx="252.8" cy="252.8" r="252.8" fill="#dadce2"/><path d="M144.4,157.7H398.8V145.6c0-12.4-9.7-22.9-22.2-22.9H90.1c-12.5,0-22.4,10.5-22.4,22.9V321.8a22.26,22.26,0,0,0,22.4,21.9h11.6V200a42.46,42.46,0,0,1,42.62-42.3Z" transform="translate(0 0)" fill="#fff"/><path d="M431.1,177.7H144.4a22.45,22.45,0,0,0-22.7,22.2h0v14.8H453.8V200A22.53,22.53,0,0,0,431.1,177.7Z" transform="translate(0 0)" fill="#fff"/><rect x="121.7" y="234.7" width="332" height="26" fill="#fff"/><path d="M121.7,375.8a22.85,22.85,0,0,0,22.7,22.9H430.9a23,23,0,0,0,22.8-22.9V280.7h-332Z" transform="translate(0 0)" fill="#fff"/></svg>