<svg id="Layer_1" data-name="Layer 1" xmlns="http://www.w3.org/2000/svg" viewBox="0 0 31.92 31.92"><circle cx="15.96" cy="15.96" r="15.96" fill="#dadce2"/><path d="M7,23H5a1,1,0,0,1-1-1V20H19V11h4.67a2.08,2.08,0,0,1,1.93,1.11c.6.94,1.54,2.43,2.11,3.38a2,2,0,0,1,.29,1V21a1.89,1.89,0,0,1-2,2H25a3,3,0,0,1-6,0H13a3,3,0,0,1-6,0Zm3-1.2A1.2,1.2,0,1,1,8.76,23,1.2,1.2,0,0,1,10,21.76Zm12,0a1.2,1.2,0,1,1-1.2,1.2A1.2,1.2,0,0,1,22,21.76ZM18,19H4V9A1,1,0,0,1,5,8H17a1,1,0,0,1,1,1Zm3-6v3h4.72l-1.43-2.5a1,1,0,0,0-.87-.5Z" fill="#fff" fill-rule="evenodd"/></svg>