<?xml version="1.0" encoding="utf-8"?>
<!-- Generator: Adobe Illustrator 24.1.3, SVG Export Plug-In . SVG Version: 6.00 Build 0)  -->
<svg version="1.1" id="Layer_1" xmlns="http://www.w3.org/2000/svg" xmlns:xlink="http://www.w3.org/1999/xlink" x="0px" y="0px"
	 viewBox="0 0 20 20" style="enable-background:new 0 0 20 20;" xml:space="preserve">
<style type="text/css">
	.st0{fill:#DADCE2;}
	.st1{fill:#FFFFFF;}
</style>
<desc>Created with Sketch.</desc>
<circle class="st0" cx="10" cy="10" r="10"/>
<g>
	<path class="st1" d="M3.5,10c0-0.8,0.5-1.3,1.3-1.3S6,9.2,6,10c0,0.8-0.5,1.3-1.3,1.3C4,11.3,3.5,10.8,3.5,10z"/>
	<path class="st1" d="M8.8,10c0-0.8,0.5-1.3,1.3-1.3s1.2,0.5,1.2,1.3c0,0.8-0.5,1.3-1.3,1.3C9.3,11.3,8.8,10.8,8.8,10z"/>
	<path class="st1" d="M14,10c0-0.8,0.5-1.3,1.3-1.3s1.2,0.5,1.2,1.3c0,0.8-0.5,1.3-1.3,1.3C14.5,11.3,14,10.8,14,10z"/>
</g>
</svg>
