<svg id="bold" xmlns="http://www.w3.org/2000/svg" viewBox="0 0 631.2 631.2"><circle cx="315.6" cy="315.6" r="315.6" fill="#dadce2"/><path d="M391.9,324.9l-29.7-29.7-36.7,18.6-6.8,3.6a66.27,66.27,0,0,1-29.4,7h-2.6l77,76.8c10.2-.9,20.1-5.5,28.4-13.9a34.59,34.59,0,0,0,6.6-9.2,44.21,44.21,0,0,0-6.6-53.1Z" transform="translate(0 0)" fill="#fff"/><path d="M282.2,328.7a7.36,7.36,0,0,1,1.5-4.5,64.7,64.7,0,0,1-40.1-18.6,64.59,64.59,0,0,1,16.9-103.5l3.4-1.7a55.67,55.67,0,0,0-48-2.6L161,220.5V399.7a6.15,6.15,0,0,1-.2,1.9,91.84,91.84,0,0,1,35.4,20.1l46.9,42.5a43.76,43.76,0,0,0,30.7,12.4,45,45,0,0,0,31.8-13,42.67,42.67,0,0,0,9.2-13.9L238.7,375a8.71,8.71,0,0,1-4.1-7.5,8.58,8.58,0,0,1,2.8-6.4l80.2,80.2a44.57,44.57,0,0,0,33.3-12.8,42.37,42.37,0,0,0,10.7-18.1v-.2l-75.3-74A8.48,8.48,0,0,1,282.2,328.7Z" transform="translate(0 0)" fill="#fff"/><path d="M123.7,202.4H70.4a16,16,0,0,0-16,16V399.7a16,16,0,0,0,16,16h53.3a16,16,0,0,0,16-16V218.4A16,16,0,0,0,123.7,202.4Z" transform="translate(0 0)" fill="#fff"/><path d="M550.4,202.4H497a16,16,0,0,0-16,16V399.7a16,16,0,0,0,16,16h53.3a16,16,0,0,0,16-16V218.4A15.9,15.9,0,0,0,550.4,202.4Z" transform="translate(0 0)" fill="#fff"/><path d="M436.2,204.3l-48.9-20.1a56.14,56.14,0,0,0-46.9,1.7l-58.2,29.2-12.2,6a44,44,0,0,0-23.5,31.8A43.26,43.26,0,0,0,289.2,303a42.84,42.84,0,0,0,19.6-4.7l7-3.6,30.5-15.4,20.2-10.1,40.4,40.4c19.8,20.3,24.5,50.6,11.9,75.3l4.1,1.5a39.59,39.59,0,0,0,36.7-5.8V218.4a15,15,0,0,1,.4-4.3l-23-9.6A2.07,2.07,0,0,0,436.2,204.3Z" transform="translate(0 0)" fill="#fff"/></svg>