<svg id="Layer_1" data-name="Layer 1" xmlns="http://www.w3.org/2000/svg" viewBox="0 0 507.95 509.8"><g id="Layer_1-2" data-name="Layer 1"><path d="M494.7,195.5A26,26,0,0,0,472.6,177L332.9,163.7,277.7,28.4a25.32,25.32,0,0,0-47.4,0L175.1,163.8,35.4,177a26.14,26.14,0,0,0-22.1,18.5,27.79,27.79,0,0,0,7.5,28.6l105.6,97L95.2,464.8a27.41,27.41,0,0,0,10,27.8,24.87,24.87,0,0,0,28.3,1.3L254,418.5,374.5,494a24.87,24.87,0,0,0,28.3-1.3,27.47,27.47,0,0,0,10-27.8L381.7,321.3l105.6-97A28.14,28.14,0,0,0,494.7,195.5Z" transform="translate(-0.03 0)" fill="#fff" stroke="#4ba48a" stroke-miterlimit="10" stroke-width="24"/></g></svg>