<svg xmlns="http://www.w3.org/2000/svg" viewBox="0 0 533.75 998.32"><defs><style>.cls-1{fill:none;stroke:#1d1d1b;}.cls-1,.cls-2,.cls-3,.cls-4,.cls-5,.cls-6{stroke-miterlimit:10;}.cls-2{fill:#da211e;stroke:#da211e;}.cls-3{fill:#2d4b9a;}.cls-3,.cls-5{stroke:#2d4b9a;}.cls-4{fill:#137834;stroke:#137834;}.cls-5{fill:#2d4a9a;}.cls-6{fill:#205072;stroke:#254f78;}</style></defs><title>Sin título-1</title><g id="Capa_2" data-name="Capa 2"><path class="cls-1" d="M419.63,1017.78" transform="translate(-1332.76 -40.7)"/><path class="cls-2" d="M1612.87,241.05" transform="translate(-1332.76 -40.7)"/><path class="cls-3" d="M1501.33,1033c-56.95,17.41-126.44-7.71-168.07-52.43V240.39l435.6-198.91V71.55l-411.7,184.26c33.38,23.06,81.53,36.19,143.4,40.09Z" transform="translate(-1332.76 -40.7)"/><path class="cls-1" d="M1627.44,971.24" transform="translate(-1332.76 -40.7)"/><path class="cls-1" d="M1501.33,1033" transform="translate(-1332.76 -40.7)"/></g><g id="Capa_3" data-name="Capa 3"><path class="cls-1" d="M865.54,469.57" transform="translate(-1332.76 -40.7)"/><path class="cls-1" d="M1865.23,708.38" transform="translate(-1332.76 -40.7)"/><path class="cls-1" d="M1865.23,713.77" transform="translate(-1332.76 -40.7)"/><polyline class="cls-4" points="375.69 153.67 532.48 77.11 532.48 299.15"/><polygon class="cls-4" points="482.4 252.69 294.52 930.62 168.35 992.95 420.25 195.11 482.4 252.69"/><polygon class="cls-4" points="532.48 77.11 532.48 299.15 375.69 153.67 532.48 77.11"/><path class="cls-1" d="M1947.24,484.75" transform="translate(-1332.76 -40.7)"/><path class="cls-1" d="M1871.92,603.52" transform="translate(-1332.76 -40.7)"/><path class="cls-1" d="M1653.72,971.06" transform="translate(-1332.76 -40.7)"/><polyline class="cls-5" points="533.25 600.21 533.25 814.16 389.24 884.64"/><path class="cls-5" d="M1818.47,730.3" transform="translate(-1332.76 -40.7)"/><path class="cls-5" d="M1818.47,730.3" transform="translate(-1332.76 -40.7)"/><polyline class="cls-5" points="485.72 689.6 431.83 793.7 168.57 255.2 276.71 202.39 485.72 689.6"/><polygon class="cls-5" points="533.08 813.79 384.38 887.02 533.08 597.32 533.08 813.79"/><path class="cls-5" d="M1801.93,813.05" transform="translate(-1332.76 -40.7)"/><path class="cls-5" d="M1872.69,850.24" transform="translate(-1332.76 -40.7)"/><path class="cls-5" d="M1874.09,858.6" transform="translate(-1332.76 -40.7)"/></g><g id="Capa_4" data-name="Capa 4"><path class="cls-6" d="M1357.91,255.81c33.38,23.06,81.53,36.19,143.4,40.09l.77,737.06c-56.95,17.41-126.44-7.71-168.07-52.43V240.39" transform="translate(-1332.76 -40.7)"/></g></svg>